<svg xmlns="http://www.w3.org/2000/svg" width="310" height="88" viewBox="0 0 310 88" role="img" aria-labelledby="title desc"><title id="title">Yoel - Y veloz</title><desc id="desc">Logotipo original vectorial. Texto convertido a trazados de Montserrat Bold con inclinación.</desc><path fill="#2563EB" d="M24 8H42L48 29L65 8H85L54 46L45 73H26L36 43Z"/><path fill="#10B981" d="M2 20H19L23 29H0ZM0 37H23L26 46H0Z"/><path fill="#0F172A" d="M135.03916041621505 72.0 137.937992540646 49.70129135053111 139.83683372208975 57.35764318231086 120.98037481031866 17.4H134.42506048124864L148.8127348710167 48.03501148926946H141.1267758421851L163.5884877520052 17.4H175.95995902883158L146.7763819553436 57.35764318231086L150.60400554736614 49.70129135053111L147.7051734229352 72.0ZM193.19883016691958 72.59173813136788Q186.53022281519327 72.59173813136788 181.70390799875207 69.81533633210492Q176.87759318231087 67.03893453284196 174.52619872845764 62.15577342564491Q172.17480427460438 57.27261231844786 172.99069053829652 50.99656413620076Q173.81292025796662 44.67172013873835 177.4388044873885 39.8188702155534Q181.06468871681034 34.96602029236845 186.59147937141188 32.207132084185524Q192.11827002601345 29.4482438760026 198.80748442011708 29.4482438760026Q205.49669881422068 29.4482438760026 210.34820455556013 32.20408081373695Q215.1997102968996 34.959917751471295 217.5229168745194 39.80743933670873Q219.8461234521392 44.65496092194617 219.02164254451202 50.99712174984771Q218.20353432907004 57.29026186863213 214.62266520810755 62.164598200737046Q211.04179608714503 67.03893453284196 205.45353351751362 69.81533633210492Q199.8652709478822 72.59173813136788 193.19883016691958 72.59173813136788ZM194.49398930847605 62.628975504010405Q197.5735605202688 62.628975504010405 200.16054478105355 61.2458535660091Q202.74752904183828 59.86273162800781 204.49745062974205 57.222216887058316Q206.2473722176458 54.581702146108825 206.71317557298545 50.998599412726875Q207.18757860394538 47.34934532841969 206.11711010405378 44.763297853891174Q205.04664160416215 42.17725037936267 202.81926904725776 40.794128441361366Q200.59189649035335 39.41100650336007 197.5358580121396 39.41100650336007Q194.47981953392588 39.41100650336007 191.89283527314115 40.794128441361366Q189.30585101235638 42.17725037936267 187.53947743550833 44.763297853891174Q185.7731038586603 47.34934532841969 185.29870082770037 50.998599412726875Q184.83289747236074 54.581702146108825 185.91981796119663 57.222216887058316Q187.00673845003251 59.86273162800781 189.23078873866694 61.2458535660091Q191.45483902730138 62.628975504010405 194.49398930847605 62.628975504010405ZM245.1616337654455 72.59173813136788Q237.9734848384999 72.59173813136788 232.9490170214611 69.79986906568394Q227.9245492044223 67.008 225.59755100802084 62.118196401474094Q223.27055281161935 57.22839280294819 224.07965579015826 51.00452373726425Q224.89680174723608 44.71878560589638 228.43060540104057 39.844449273791454Q231.96440905484502 34.97011294168654 237.3987413396922 32.209178408844565Q242.83307362453937 29.4482438760026 249.22641895295902 29.4482438760026Q255.40322255148493 29.4482438760026 260.0063898038153 32.061907543897675Q264.60955705614566 34.67557121179276 266.86086456319094 39.542505744634724Q269.1121720702363 44.40944027747669 268.23033717754174 51.192785605896376Q268.13924973119447 51.89345827010622 267.9683450184262 52.78913093431606Q267.7974403056579 53.6848035985259 267.6222343485801 54.43254172989378H233.51346673531324L234.43517141339694 47.342505744634735H262.10199799046177L257.12597767613266 49.46330934316063Q257.59541931497944 46.21426186863212 256.568165782571 43.77681259484066Q255.5409122501626 41.339363321049206 253.3830893832647 39.964306850205936Q251.2252665163668 38.58925037936267 248.09995717320618 38.58925037936267Q244.97464783004554 38.58925037936267 242.4203102807284 39.964306850205936Q239.86597273141123 41.339363321049206 238.24092313245177 43.80034532841968Q236.6158735334923 46.261327335790156 236.18126034034253 49.60450574463473L235.93439651203124 51.50345827010622Q235.48771885107305 54.93944027747669 236.66720816063298 57.52482408411012Q237.84669747019294 60.11020789074355 240.44592834814654 61.50879709516583Q243.04515922610017 62.90738629958812 246.77833763494473 62.90738629958812Q250.11886137220898 62.90738629958812 252.77370499891612 61.892058963797965Q255.42854862562325 60.8767316280078 257.8517177108173 58.79901148926945L263.41294913071755 65.82186906568394Q260.0513095100802 69.1288035985259 255.47501336765663 70.8602708649469Q250.89871722523304 72.59173813136788 245.1616337654455 72.59173813136788ZM273.6774222848472 72.0 281.2013022848472 14.124000000000002H293.3697080945155L285.8458280945155 72.0Z"/></svg>